<?xml version="1.0" encoding="utf-8"?>
<!-- Generator: Adobe Illustrator 19.1.0, SVG Export Plug-In . SVG Version: 6.00 Build 0)  -->
<svg version="1.1" id="Layer_1" xmlns="http://www.w3.org/2000/svg" xmlns:xlink="http://www.w3.org/1999/xlink" x="0px" y="0px"
	 viewBox="0 0 55 47" style="enable-background:new 0 0 55 47;" xml:space="preserve">
<style type="text/css">
	.st0{fill:#F78C26;}
	.st1{opacity:0.3;fill:#F4C623;enable-background:new    ;}
	.st2{fill:#999A9E;}
	.st3{fill:#BABCBE;}
	.st4{fill:#86898C;}
	.st5{fill:none;}
	.st6{opacity:0.5;fill:#F3F3F3;}
</style>
<g id="XMLID_265_">
	<path id="XMLID_282_" class="st0" d="M21.5,27c-3.3-2.9-5.7-6.8-6.9-11.2c-2.6,3.3-4.2,7.4-4.6,11.8c2.5,4,6.2,7,10.6,8.8
		c-0.1-1.1-0.2-2-0.2-3C20.6,31.1,20.9,29,21.5,27z"/>
	<path id="XMLID_281_" class="st1" d="M27.9,16.8c-1.6-2.5-2.8-5.4-3.3-8.4c-4,1.4-7.5,4-10,7.4c1.2,4.4,3.5,8.3,6.9,11.2"/>
	<path id="XMLID_280_" class="st2" d="M14.6,15.8c-0.5-1.8-0.7-3.5-0.7-5.4c0-0.7,0-1.4,0.1-2.1c-3.6,2.9-6.1,7.1-6.9,11.8
		c0.6,2.7,1.5,5.1,3,7.5C10.4,23.1,12,19.2,14.6,15.8z"/>
	<path id="XMLID_279_" class="st3" d="M14,8.3c-0.1,0.7-0.1,1.4-0.1,2.1c0,1.9,0.2,3.6,0.7,5.4c2.6-3.3,6.1-5.8,10-7.4
		c-0.2-1.2-0.4-2.5-0.4-3.6c0-0.2,0-0.5,0-0.7C20.4,4.5,16.9,6,14,8.3z"/>
	<path id="XMLID_274_" class="st4" d="M42.1,12.5L42.1,12.5c-0.5-0.7-1.1-1.4-1.6-2.1l0,0c-0.2-0.2-0.5-0.5-0.7-0.7l-0.1-0.1
		c-0.2-0.1-0.4-0.4-0.6-0.5C39,9,39,9,38.9,8.9c-0.1-0.1-0.4-0.2-0.5-0.5c-0.1-0.1-0.2-0.1-0.2-0.2c-0.1-0.1-0.4-0.2-0.5-0.4
		c-0.1-0.1-0.2-0.1-0.2-0.2c-0.1-0.1-0.4-0.2-0.5-0.4c-0.1-0.1-0.2-0.1-0.4-0.2c-0.1-0.1-0.4-0.2-0.5-0.4c-0.2,0-0.4-0.1-0.5-0.1
		c-0.1-0.1-0.4-0.2-0.5-0.2c-0.1,0-0.1-0.1-0.2-0.1C34,6.1,33,6,32,6c-2.1,0-4.3,0.4-6.3,0.8c-0.1-0.7-0.1-1.3-0.1-2
		c0-0.2,0-0.6,0-0.8c-0.8,0-1.8,0.1-2.6,0.2c0,0.2,0,0.4,0,0.6c0,0.5,0,0.9,0,1.4c0,0.1,0,0.2,0,0.4c0,0.4,0,0.7,0.1,1.1
		c-2.9,1.2-5.6,3-7.8,5.3c-0.1-0.8-0.1-1.8-0.1-2.6c0-1.1,0.1-2.1,0.2-3.2c-0.9,0.7-1.9,1.4-2.8,2.2c0,0.2,0,0.6,0,0.8
		c0,0.5,0,0.9,0,1.4c0,0.1,0,0.4,0,0.5c0,0.4,0,0.6,0.1,0.9c0,0.2,0,0.4,0.1,0.6c0,0.2,0.1,0.6,0.1,0.8s0.1,0.4,0.1,0.6
		c0,0.1,0,0.4,0.1,0.5c-1.8,2.5-3,5.1-3.7,8.1c-0.8-2.1-1.4-4.4-1.5-6.7l0,0l0,0l0,0c-0.7,2-1.2,4.2-1.2,6.5c0,0.2,0,0.4,0,0.6l0,0
		c0,0.1,0,0.2,0,0.4s0,0.2,0,0.4c0,0.2,0,0.4,0,0.6c0,0.1,0,0.2,0,0.4c0,0.2,0,0.4,0.1,0.6c0,0.1,0,0.2,0,0.4v0.1
		c0,0.1,0,0.2,0.1,0.4c0,0.1,0,0.2,0.1,0.4c0,0.1,0,0.1,0,0.2c0,0.1,0,0.1,0,0.2c0.1,0.4,0.1,0.6,0.2,0.9v0.1c0,0,0,0,0,0.1
		c0,0.2,0.1,0.4,0.2,0.6c0,0.1,0,0.1,0.1,0.2l0,0c0.1,0.2,0.1,0.4,0.2,0.6v0.1l0,0c0.1,0.2,0.1,0.4,0.2,0.6v0.1
		c0.6,1.4,1.4,2.7,2.3,4l0,0l0,0c1.8,2.2,4,4.1,6.7,5.5l0,0c0.2,0.1,0.5,0.2,0.7,0.4c0,0,0,0,0.1,0c0.2,0.1,0.5,0.2,0.7,0.4h0.1
		c0.2,0.1,0.5,0.2,0.7,0.2h0.1c0.2,0.1,0.5,0.1,0.7,0.2h0.1c0.2,0.1,0.5,0.1,0.8,0.2c0,0,0,0,0.1,0c0.2,0.1,0.6,0.1,0.8,0.2l0,0l0,0
		c0.5,0.1,1.1,0.1,1.5,0.2l0,0c-1.9-4-2.2-7.2-2.2-7.2c-0.1-0.7-0.1-1.4-0.1-2.1c0-2,0.2-4.1,0.8-6c1.1-3.7,3.2-7,6.1-9.6l0,0
		C32.5,14.4,37.2,12.5,42.1,12.5L42.1,12.5z M19.4,33.3c0,0.4,0,0.7,0,1.1c-3.3-1.6-6-4.1-7.9-7.1c0.2-3,1.3-6.1,2.8-8.6
		c0.1,0.2,0.1,0.4,0.2,0.6c0,0.1,0.1,0.2,0.1,0.4c0.2,0.5,0.5,0.9,0.7,1.4c0,0.1,0.1,0.1,0.1,0.2c0.2,0.4,0.5,0.8,0.7,1.2
		c0.1,0.1,0.2,0.2,0.2,0.5c0.2,0.4,0.5,0.6,0.6,0.9c0.1,0.1,0.2,0.2,0.2,0.4c0.2,0.4,0.6,0.7,0.8,1.1l0.1,0.1
		c0.4,0.4,0.7,0.8,1.1,1.2c0.1,0.1,0.2,0.2,0.4,0.4c0.1,0.1,0.4,0.4,0.5,0.5C19.6,29.3,19.4,31.3,19.4,33.3z M20.9,24.9
		c-0.5-0.5-0.9-1.1-1.4-1.6c-0.1-0.1-0.2-0.2-0.4-0.5c-0.1-0.2-0.4-0.5-0.5-0.7c-0.1-0.2-0.2-0.4-0.4-0.6S18.1,21,18,20.9
		c-0.1-0.2-0.2-0.5-0.4-0.7c-0.1-0.2-0.2-0.4-0.4-0.6c-0.2-0.4-0.4-0.7-0.5-1.1c0-0.1-0.1-0.1-0.1-0.2c-0.2-0.5-0.4-0.8-0.5-1.3
		c0-0.1-0.1-0.2-0.1-0.5c0-0.1-0.1-0.4-0.1-0.5c2.1-2.6,4.8-4.7,7.8-6c0.6,2.3,1.4,4.4,2.6,6.4C24.1,19.1,22.2,21.9,20.9,24.9z
		 M28.1,15.1c0-0.1-0.1-0.1-0.1-0.2c-0.2-0.4-0.4-0.7-0.5-0.9c0-0.1-0.1-0.2-0.1-0.4c-0.2-0.5-0.4-0.8-0.6-1.3l0,0
		c-0.1-0.5-0.4-0.9-0.5-1.3c0-0.1,0-0.1,0-0.2c-0.1-0.5-0.2-0.9-0.4-1.4c2-0.6,4-0.9,6.1-0.9c2.9,0,5.7,0.6,8.3,1.8
		C35.8,10.7,31.6,12.4,28.1,15.1z"/>
	<path id="XMLID_273_" class="st4" d="M24.4,44C13.9,43.1,5.5,34.2,5.5,23.4c0-11.4,9.3-20.8,20.8-20.8c8.9,0,16.7,5.6,19.6,14
		l0.4,1.5l-2.5-1.3l-1.2,2.2l5.8,3l3.5-5.5l-2.1-1.3l-1.4,2.2L48.2,16v-0.1C44.9,6.6,36.1,0.3,26.3,0.3C13.4,0.3,3,10.7,3,23.5
		c0,12.6,10.2,23,22.8,23.2C25.2,45.8,24.8,45,24.4,44z"/>
	<path id="XMLID_272_" class="st5" d="M44.9,11.5c-0.2-0.1-0.4-0.2-0.6-0.4c0.1,0.1,0.1,0.2,0.2,0.4C44.7,11.5,44.8,11.5,44.9,11.5z
		"/>
	<circle id="XMLID_270_" class="st6" cx="38.4" cy="35.1" r="10.4"/>
	<path id="XMLID_267_" class="st4" d="M38.4,23.5c-6.3,0-11.6,5.1-11.6,11.6c0,6.3,5.1,11.6,11.6,11.6c6.3,0,11.6-5.1,11.6-11.6
		S44.8,23.5,38.4,23.5z M39.3,44.2v-1.9c-0.4,0-0.6,0.1-0.9,0.1s-0.6,0-0.9-0.1v1.9c-4.3-0.5-7.8-3.9-8.2-8.2h1.9
		c0-0.4-0.1-0.6-0.1-0.9s0-0.6,0.1-0.9h-1.9c0.5-4.3,3.9-7.8,8.2-8.2v1.9c0.4,0,0.6-0.1,0.9-0.1s0.6,0,0.9,0.1V26
		c4.3,0.5,7.8,3.9,8.2,8.2h-1.9c0,0.4,0.1,0.6,0.1,0.9s0,0.6-0.1,0.9h1.9C47.2,40.3,43.8,43.7,39.3,44.2z"/>
	<polygon id="XMLID_266_" class="st4" points="37.9,37.6 32.3,31 34.3,29.3 38.2,33.9 41.3,30.9 43.1,32.7 	"/>
</g>
</svg>
